<?xml version="1.0" encoding="utf-8"?>
<!-- Svg Vector Icons : http://www.sfont.cn -->
<!DOCTYPE svg PUBLIC "-//W3C//DTD SVG 1.1//EN" "http://www.w3.org/Graphics/SVG/1.1/DTD/svg11.dtd">
<svg version="1.1" xmlns="http://www.w3.org/2000/svg" xmlns:xlink="http://www.w3.org/1999/xlink" x="0px" y="0px" viewBox="0 0 1000 1000" enable-background="new 0 0 1000 1000" xml:space="preserve">
<metadata> Svg Vector Icons : http://www.sfont.cn </metadata>
<g><path d="M324.4,60.4c-0.6-0.6-1-1.2-1.6-1.8c-64.9-64.9-170.1-64.9-234.9,0c-63.6,63.5-64.7,165.6-3.8,230.7C137.4,189.6,221.8,109,324.4,60.4z"/><path d="M915.9,289.4c60.9-65.2,59.7-167.2-3.8-230.7c-64.9-64.9-170-64.9-234.9,0c-0.6,0.6-1,1.2-1.6,1.8C778.2,109,862.6,189.6,915.9,289.4z"/><path d="M727.5,878.3C849.1,802.3,930,667.4,930,513.5c0-237.5-192.5-430-430-430c-237.5,0-430,192.5-430,430c0,153.9,80.9,288.8,202.5,364.8L202.8,948c-9.6,9.6-9.6,25.2,0,34.8c9.6,9.6,25.2,9.6,34.8,0l80-80c55.4,26,117.2,40.6,182.5,40.6c65.2,0,127.1-14.6,182.5-40.6l80,80c9.6,9.6,25.2,9.6,34.8,0c9.6-9.6,9.6-25.2,0-34.8L727.5,878.3z M499.6,562.8c-9.3,0-17.4-4.3-23-10.9c-4.5-5.3-7.3-12-7.3-19.4v-0.3c0,0,0-0.1,0-0.2s0-0.1,0-0.2l0-307.4c0-16.7,13.8-30.3,30.7-30.3c17,0,30.7,13.5,30.7,30.3l0,276.9h276.8c16.8,0,30.3,13.7,30.3,30.7c0,17-13.5,30.7-30.3,30.7H499.6z"/></g>
</svg>
