<?xml version="1.0" encoding="utf-8"?>
<!-- Svg Vector Icons : http://www.sfont.cn -->
<!DOCTYPE svg PUBLIC "-//W3C//DTD SVG 1.1//EN" "http://www.w3.org/Graphics/SVG/1.1/DTD/svg11.dtd">
<svg version="1.1" xmlns="http://www.w3.org/2000/svg" xmlns:xlink="http://www.w3.org/1999/xlink" x="0px" y="0px" viewBox="0 0 1000 1000" enable-background="new 0 0 1000 1000" xml:space="preserve">
<metadata> Svg Vector Icons : http://www.sfont.cn </metadata>
<g><path d="M10,198.5h150.8v376.9H990v113.1v113.1H876.9V688.5H160.8v113.1H10V198.5z M952.3,537.7H443.5V311.5c175.9,0,295.3,0,389.5,37.7C927.2,386.9,939.7,462.3,952.3,537.7z M198.5,443.5l150.8,18.8v75.4H198.5V443.5z M273.8,273.8c41.6,0,75.4,33.8,75.4,75.4c0,41.6-33.8,75.4-75.4,75.4c-41.6,0-75.4-33.7-75.4-75.4C198.5,307.6,232.2,273.8,273.8,273.8z M377.5,311.5h47.1v226.2h-47.1V311.5z"/></g>
</svg>