<?xml version="1.0" encoding="utf-8"?>
<!-- Svg Vector Icons : http://www.sfont.cn -->
<!DOCTYPE svg PUBLIC "-//W3C//DTD SVG 1.1//EN" "http://www.w3.org/Graphics/SVG/1.1/DTD/svg11.dtd">
<svg version="1.1" xmlns="http://www.w3.org/2000/svg" xmlns:xlink="http://www.w3.org/1999/xlink" x="0px" y="0px" viewBox="0 0 1000 1000" enable-background="new 0 0 1000 1000" xml:space="preserve">
<metadata> Svg Vector Icons : http://www.sfont.cn </metadata>
<g><path d="M836.9,897.7V775.3H163.1v122.4H10V683.5h980v214.1H836.9z M223,414.8c90-32.5,474.2-32.5,553.9,0C903.2,466.3,990,653,990,653H10C10,653,114.2,454.1,223,414.8z M859.1,386.1c5.4-7.5,8.4-15.5,8.4-23.8c0-17.4-12.9-33.4-34.3-46.3c-0.5-1.1-0.8-2.3-1.3-3.4c3.2-3.7,5-7.5,5-11.5c0-25.3-68.6-45.9-153.1-45.9c-84.6,0-153.1,20.5-153.1,45.9c0,4,1.9,7.8,5,11.5c-3.2,6.1-5,12.5-5,19.1c0,6,1.7,11.9,4.4,17.5c-10.6-3.4-22.3-5.5-35-5.5c-12.7,0-24.4,2.1-35,5.5c2.7-5.6,4.4-11.5,4.4-17.5c0-6.6-1.9-13-5-19.1c3.2-3.7,5-7.5,5-11.5c0-25.3-68.6-45.9-153.1-45.9c-84.6,0-153.1,20.5-153.1,45.9c0,4,1.9,7.8,5,11.5c-0.6,1.1-0.9,2.3-1.3,3.4c-21.4,12.9-34.3,28.9-34.3,46.3c0,8.3,3,16.3,8.4,23.8c-24.5,14.9-39,33.1-39,52.7H40.6l0-308.1c0-15.7,12.7-28.4,28.4-28.4H931c15.7,0,28.4,12.7,28.4,28.4v308.1h-61.3C898.1,419.2,883.6,401.1,859.1,386.1z"/></g>
</svg>